<?xml version="1.0" encoding="utf-8"?>
<!-- Generator: Adobe Illustrator 26.0.3, SVG Export Plug-In . SVG Version: 6.00 Build 0)  -->
<svg version="1.0" id="Layer_1" xmlns="http://www.w3.org/2000/svg" xmlns:xlink="http://www.w3.org/1999/xlink" x="0px" y="0px"
	 viewBox="0 0 267.5 184.2" style="enable-background:new 0 0 267.5 184.2;" xml:space="preserve">
<style type="text/css">
	.st0{fill:#C89B3C;}
	.st1{fill:#32C8FF;}
</style>
<path class="st0" d="M214,82.9c-3.1-0.8-5.8-1.4-5.8-4c0-2,1.5-3.2,3.9-3.2c2.2-0.1,4.2,1.4,4.7,3.6l6-2.9c-1.6-4-5.5-6.4-10.5-6.4
	c-6.5,0-11,4-11,9.6c0,6.9,5,8.2,9.5,9.4c3.1,0.8,5.8,1.5,5.8,4.1c0,2.2-1.7,3.5-4.4,3.5s-4.9-1.5-5.5-3.6l-6,2.9
	c1.7,4,6,6.4,11.2,6.4c7,0,11.6-3.9,11.6-10C223.6,85.2,218.2,83.9,214,82.9L214,82.9z"/>
<polygon class="st0" points="215.4,56.1 218.9,56.1 218.9,51.3 222.5,51.3 223.4,48.2 218.9,48.2 218.9,45.2 224,45.2 224,42 
	215.4,42 "/>
<path class="st0" d="M206.6,56.5c4,0,7.3-3.3,7.2-7.4c0-4-3.3-7.3-7.4-7.2c-4,0-7.2,3.3-7.2,7.3C199.3,53.2,202.6,56.5,206.6,56.5z
	 M206.6,45.3c2.2,0,3.9,1.8,3.9,3.9s-1.8,3.9-3.9,3.9c-2.2,0-3.9-1.8-3.9-3.9c0,0,0,0,0,0C202.7,47,204.4,45.3,206.6,45.3
	C206.6,45.3,206.6,45.3,206.6,45.3z"/>
<polygon class="st0" points="141,70.2 142.5,73.3 142.5,101.4 149,101.4 149,80.8 163.7,101.4 170.5,101.4 170.5,70.2 164,70.2 
	164,91 149.4,70.2 "/>
<path class="st0" d="M190.4,71.4c-2-0.8-4.1-1.2-6.2-1.3h-10.6v31.2h10.6c4.2,0,8.2-1.6,11.3-4.5c1.5-1.4,2.6-3.1,3.4-4.9
	c1.7-3.9,1.7-8.4,0-12.3c-0.8-1.9-2-3.5-3.4-4.9C194,73.4,192.3,72.2,190.4,71.4z M192.5,89.4c-1.4,3.4-4.8,5.7-8.5,5.6h-3.7V76.5
	h3.8c1.3,0,2.5,0.2,3.6,0.8c1.1,0.5,2.1,1.2,2.9,2c1.7,1.8,2.7,4.1,2.7,6.6C193.3,87.1,193,88.3,192.5,89.4L192.5,89.4z"/>
<polygon class="st0" points="66.6,70.2 66.6,101.4 85.2,101.4 85.2,95.3 73.4,95.3 73.4,88.5 82.5,88.5 84.1,82.6 73.4,82.6 
	73.4,76.2 85.2,76.2 85.2,70.2 "/>
<polygon class="st0" points="138.4,82.6 127.6,82.6 127.6,76.2 139.5,76.2 139.5,70.2 120.9,70.2 120.9,101.4 139.5,101.4 
	139.5,95.3 127.6,95.3 127.6,88.5 136.8,88.5 "/>
<path class="st0" d="M153.7,62.1c1.1,1.1,2.4,2,3.9,2.6c3.4,1.2,7.2,1.2,10.6,0c1.5-0.6,2.9-1.4,4-2.6c1.1-1.2,2-2.6,2.5-4.1
	c0.6-1.7,0.9-3.5,0.9-5.3l0.1-19.4h-6.9l-0.1,19c0.1,1.8-0.4,3.6-1.5,5c-2.3,2.4-6.1,2.4-8.5,0c0,0-0.1-0.1-0.1-0.1
	c-1-1.5-1.6-3.2-1.5-5l0.1-19h-6.8l-0.1,19.3c0,1.8,0.3,3.6,0.9,5.3C151.7,59.5,152.5,60.9,153.7,62.1z"/>
<path class="st0" d="M120.9,60.7c1.5,1.5,3.2,2.7,5.1,3.5c4,1.7,8.6,1.7,12.6,0.2c1.8-0.8,3.5-1.9,4.9-3.2c1.4-1.4,2.5-3.1,3.2-4.9
	c0.6-1.4,0.9-2.8,1.1-4.3c0.1-1.5,0.1-2.9,0.1-4.4h-15.5l-2.8,5.7h11c-0.4,1.8-1.4,3.3-2.9,4.4c-1.6,1.1-3.5,1.7-5.4,1.6
	c-1.3,0-2.5-0.3-3.7-0.8c-1.1-0.5-2.1-1.2-3-2.1c-2.7-2.9-3.5-7.2-2-10.9c1-2.3,2.8-4.2,5.1-5.2c1.2-0.5,2.5-0.8,3.8-0.8
	c1.7,0,3.3,0.4,4.8,1.2c1.4,0.8,2.5,2,3.2,3.5l6.1-2.9c-1.2-2.5-3.2-4.6-5.6-5.9c-2.6-1.5-5.5-2.2-8.5-2.2c-2.2,0-4.3,0.4-6.4,1.2
	c-1.9,0.8-3.7,2-5.2,3.4c-1.5,1.5-2.7,3.2-3.5,5.1c-0.9,2-1.3,4.1-1.3,6.2c0,2.2,0.4,4.3,1.2,6.3C118.2,57.5,119.4,59.2,120.9,60.7z
	"/>
<polygon class="st0" points="43.6,33.4 45.1,36.6 45.1,61.5 43.6,64.7 62.6,64.7 64.3,58.6 51.8,58.6 51.8,33.4 "/>
<polygon class="st0" points="43.6,70.1 45.1,73.3 45.1,98.2 43.6,101.4 62.6,101.4 64.3,95.3 51.8,95.3 51.8,70.1 "/>
<polygon class="st0" points="66.6,33.4 66.6,64.7 85.2,64.7 85.2,58.7 73.4,58.6 73.4,51.7 82.5,51.7 84.1,45.9 73.4,45.9 
	73.4,39.6 85.2,39.6 85.2,33.4 "/>
<polygon class="st0" points="178.6,33.4 178.6,64.7 197.2,64.7 197.2,58.7 185.4,58.6 185.4,51.7 194.5,51.7 196.1,45.9 185.4,45.9 
	185.4,39.6 197.2,39.6 197.2,33.4 "/>
<path class="st0" d="M94.2,64.7l2.4-6.1h12.5l2.4,6.1h7L106,33.4h-9.6l2,4.1L87.4,64.7H94.2z M102.9,42.1l3.9,10.5h-8L102.9,42.1z"
	/>
<path class="st0" d="M99.2,95.3L99,95.2c-1.1-0.5-2.1-1.2-3-2.2c-2.7-2.9-3.5-7.2-2-10.8c1-2.3,2.8-4.2,5.1-5.2
	c1.2-0.5,2.4-0.8,3.7-0.8c1.7,0,3.3,0.4,4.8,1.2c1.4,0.8,2.5,2,3.2,3.5l6.1-2.9c-1.2-2.5-3.2-4.6-5.6-6c-2.6-1.5-5.5-2.2-8.5-2.2
	c-2.2,0-4.3,0.4-6.4,1.2c-1.9,0.8-3.7,2-5.2,3.4c-1.5,1.5-2.7,3.2-3.5,5.1c-0.9,2-1.3,4.1-1.3,6.2c0,2.2,0.4,4.3,1.2,6.3
	c0.8,1.9,2,3.7,3.5,5.1c1.4,1.4,3.1,2.6,4.9,3.4L99.2,95.3z"/>
<path class="st0" d="M118.2,84.4h-15.5L99.9,90h11c-0.4,1.8-1.4,3.3-2.9,4.4c-1.6,1.1-3.5,1.7-5.4,1.6c-0.9,0-1.8-0.1-2.7-0.4
	l-1.5,6.1c1.3,0.3,2.7,0.5,4.1,0.5c2.1,0,4.3-0.4,6.3-1.2c1.8-0.7,3.5-1.8,4.9-3.2c1.4-1.4,2.5-3.1,3.2-4.9c0.6-1.4,0.9-2.8,1.1-4.3
	C118.3,87.3,118.3,85.8,118.2,84.4z"/>
<path class="st1" d="M88,119.1c3.4-7.6,12.2-25.5,12.5-26.1c0.3-0.6,0.3-0.8-0.1-0.2c-2.1,3.1-5.7,8.2-8.9,12.8
	c-0.9,1.4-2.1,2.6-3.4,3.6c-0.3,0.2-0.6,0.5-0.7,0.8c-0.9,2.1-9,20.4-10.5,24.6c-0.7-3.5-1.3-7.1-1.5-10.7c0-0.5,0.1-1.1-0.2-0.4
	c-0.2,0.4-0.7,1.3-0.7,1.3l-0.7,0.1c-2,2.2-5,6.2-10.1,12.5c0,0,4.6-13.1,5.2-14.7c1.4-3.5-0.5-0.5,1.2-4.9c0.3-0.7,2.5-7.2,3.1-9
	c0.2-0.7,0.1-0.5-0.5,0.3c-0.9,1.3-3.1,4.3-3.6,4.9c-0.5,0.5-3,7.2-3.2,7.7c-0.2,0.5-0.4,0.6-0.2,0c0.2-1.1,1.3-5.7,1.4-6.3
	s-0.5,0.2-0.9,1.4c-0.3,0.9-1.4,4.1-2.2,7.2c-0.8,2.7-7.5,26.1-7.7,26.8c1-0.9,2.9-3.8,3.9-4.1c0.7-0.2,0.8-1.1,1.8-2.3
	c2.5-3.1,4.1-5.5,11.2-13.5c1.1,5.7,2.5,15.2,2.5,15.2c0.6-0.9,1.2-1.8,1.6-2.8c0.5-1.4,1-1,1.1-1.6C79.6,137.1,84.7,126.7,88,119.1
	L88,119.1z"/>
<path class="st1" d="M121.5,126.5c0.9-1.2,2.5-3.9,2.5-6.3c0-2.6-2.1-4.6-6.9-4.6c-3,0-6.1,1-10.3,2.6c-1.1,0.4-1,0.5,0,0.3
	s3-0.5,3.6-0.6s0.5,0.7,1.9,0.3c-0.5,0.9-1.9,3.8-3.5,7.4c-2.2,4.9-3.2,7.8-3.4,8.4c-0.2,0.8,2,0.6,0.8,1.2c-1.5,0.8-3.5,1.9-5.7,3
	c-1.2,0.6-2.4,1.1,1.1,0C111.6,135,117.2,132.1,121.5,126.5L121.5,126.5z M111.4,126.2c1.7-4,2.9-6.2,3.3-7.4c0.1-0.4-0.2-0.5-1-0.9
	c0.6-0.1,1.8-0.2,2.5-0.2c2.5,0,4.6,0.6,4.6,2.8c0,4-6.1,10.9-12.5,13.5C108.4,134,109.3,131.4,111.4,126.2L111.4,126.2z"/>
<path class="st1" d="M142.8,131.5l-0.3-0.7c0,0-3.4-2.6-5.2-4.2c5.6-2.6,21.8-9.9,20.9-17.1c-0.5-4-6.8-5.2-11-5.2
	c-10.8,0-26.4,4-30.5,5.5c-0.1,0-0.1,0.1,0,0.1c9.1-1.6,35.1-4.6,35.5,0.9c0.3,4.2-13.7,12.2-17.6,14l-0.3-0.3
	c1.5-4.1,3.2-8.2,3.5-8.9c0.1-0.2,0-0.2-0.1-0.4c-0.2-0.1-0.7-0.4-0.9-0.6c-0.2-0.1-0.2-0.2-0.1-0.4c0.4-0.6,0.9-1.3,1.1-1.6
	s0.1-0.2-0.1-0.2c-3.4,0.7-6.7,1.7-9.9,3c-0.4,0.1-0.3,0.2,0.1,0.1c1.5-0.4,6.6-1.8,5.8,0.3c-0.2,0.7-1.3,3.3-2.8,7.4
	c-1.1,0-1.1,0.5-1.6,0.7c-0.4,0.1-2.3-0.2-1.5,0.4c0.6,0.5,0.9,0.8,2,1.8c-1.7,4.5-4.4,11.8-4.4,11.8c-0.2,0.6,0.6,0.6,1.2,1.6
	c0.6,0.9,1.1,3,1.6,1.7c0.6-1.5,3.6-10.1,4.6-12.6c0,0,4.4,3.5,5.8,4.5c2.8,2.1,5.2,4.1,7.5,5.5c1.6,1,2,1.1-0.3-0.8
	c-3.8-3.1-3.3-3.1,2,0.5c0.6,0.5,1.3,0.8,2.1,0.9c0.5,0,0.8,0.1,2.4,1.1c1.2,0.8,2,1.3,4,2.7c2.7,1.8,3.2,1.7,0.6-0.3
	C154.3,140.8,142.8,131.5,142.8,131.5z"/>
<path class="st1" d="M207.4,107.4c-10.4-0.6-33.9,1.2-42.5,3.2c-0.3,0.1-0.3,0.2-0.2,0.5s1.1,0.8,1.1,1.1c0.1,0.9,1.4,0.6,1.1,1.4
	l-2.3,5.8c-0.9,0.3-1.7,0.7-2.5,1.1c-0.1,0.2,1.2,0.8,1.3,1.8c-1,2.5-2.4,6.8-2.6,7.3c-0.2,0.6,0.6,0.7,0.9,1.2
	c0.2,0.5,0.6,1.6,0.8,1.8c0.3,0.4,0.4,0.1,0.6-0.3c0.2-0.6,0.9-2.5,1.2-3.4c0.6-1.8,2.5-7.2,2.5-7.2c2.7-1.1,4.1-1.2,4.1-1.4
	s0.8-0.8,0.8-0.8s0.4-0.3,0.4-0.5s0.7-0.3,1.1-0.5s0.2-0.4-0.1-0.4c-1.7,0-3.5,0.1-5.1,0.5c0.5-1.5,1.8-4.8,2.3-5.9
	c3.2-0.8,6.4-1.4,9.6-1.8c-1.1,3-3.7,10.2-4,11.1c-0.4,1-0.8,1.4-0.7,1.8s-0.9,2.8-1.5,4.7c-0.2,0.7-0.2,0.8,0,1
	c0.2,0.2,0.2,0.1,0.4-0.3c0.8-1.6,1.1-1,0.4,1.2c0,0.1,0,0.1,0,0.2c0.4,0.6,1.3,1.7,1.6,0.9c1.6-5,3.8-12.2,7-21
	c4.6-0.6,5.9-0.7,7.6-0.9c0.8-0.1,1-0.8,2.1-1c5-0.4,10.6-0.9,14.6-1.1C207.6,107.5,207.7,107.4,207.4,107.4L207.4,107.4z"/>
<path class="st1" d="M91.1,124.3c-0.8,0.3-0.6,0.5-1.2,1.2c-0.2,0.3-0.8,0.1-1,0.5c-1.2,2.9-4.1,9.3-4.9,12.1
	c-0.1,0.3,0.1,0.6,0.3,0.8c0,0,0.4-1.3,0.6-1.1s0,1.9,0.3,2c0.5,0.3,0.9,0.5,1.2-0.1c0.3-0.6,1.6-4.2,3.1-7.8
	c1.1-2.7,2.4-5.2,3.9-7.7C94.2,123.1,91.9,124,91.1,124.3L91.1,124.3z"/>
<path class="st1" d="M99.2,127.4c1.4-2.6,2.9-5.5,3.6-6.6c0.4-0.6-2.4,0.4-2.8,0.6c-0.7,0.2-1.2,0.7-1.6,1.4c-0.5,1-2.5,5-4,8.5
	c-0.6,1.4-2.1,4.2-2.2,4.7c0,0.4,0.1,0.7,0.2,1.1c0.1,0.1,0.9-0.1,1,0c-0.9,0.7-1.8,1.2-2.8,1.8c-0.3,0.2-0.2,0.2,0,0.1
	c1.1-0.4,6.5-2,9.5-3c0.4-0.5,0.8-1.1,1.1-1.6l-1.7,0.3c-0.1,0-0.2-0.1,0-0.2c0.5-0.2,4.6-2.4,2.9-1.9c-2.3,0.6-4.6,1.4-6.9,2.3
	C95.5,134.9,97.5,130.9,99.2,127.4L99.2,127.4z"/>
<path class="st1" d="M158.3,117.8c-0.4,0.4-0.8,1.5-1.4,2c-0.3,0.2-1.4,0.6-1.5,0.9c-1,2.5-3.5,9.7-3.6,10.6c0,0.4,0.1,0.5,0.4,0.6
	c0.6,0.3,1-0.4,1.5-0.2c0.3,0.1,0,0.9,0.1,1.1c0.1,0.2,0.4,0.1,0.7-0.7c0.6-2.1,2.4-7.4,3.2-9.5s1.5-3.7,2.1-5.1
	C160,117.2,158.7,117.4,158.3,117.8L158.3,117.8z"/>
<path class="st1" d="M212.6,107.5h-0.6v-0.4h1.7v0.4H213v1.5h-0.4L212.6,107.5L212.6,107.5z M214.1,107.1h0.4l0.6,1l0.6-1h0.4v1.8
	h-0.4v-1.2l-0.6,1l0,0l-0.6-1v1.2h-0.4L214.1,107.1L214.1,107.1z"/>
</svg>
