<svg width="289" height="239" viewBox="0 0 289 239" fill="none" xmlns="http://www.w3.org/2000/svg">
<path d="M105.5 66L144.5 1L183.5 66L144.5 97.5L105.5 66Z" fill="black"/>
<path d="M101 56L107.5 37L81.5 23V52.5L101 56Z" fill="black"/>
<path d="M188 56L180.5 37L208 23L207.5 53.5L188 56Z" fill="black"/>
<path d="M105.5 66L144.5 1L183.5 66L144.5 97.5L105.5 66Z" stroke="black"/>
<path d="M101 56L107.5 37L81.5 23V52.5L101 56Z" stroke="black"/>
<path d="M188 56L180.5 37L208 23L207.5 53.5L188 56Z" stroke="black"/>
<path fill-rule="evenodd" clip-rule="evenodd" d="M9.594 26.25C9.303 28.587 8.586 37.025 8 45C7.415 52.975 6.507 64.675 5.983 71C5.459 77.325 4.324 91.275 3.46 102C2.597 112.725 1.521 126 1.069 131.5L0.247002 141.5L7.51 160.5C11.504 170.95 15.305 182.425 15.956 186C17.509 194.523 23.7 207.165 29.581 213.824C39.27 224.791 54.644 233.109 71.777 236.653L79.446 238.239L85.223 232.093C88.4 228.712 91 225.556 91 225.078C91 224.6 88.739 222.757 85.975 220.984C79.318 216.712 74.486 210.905 71.91 204.079C70.182 199.5 69.907 197.155 70.379 191C70.695 186.875 71.23 182.11 71.567 180.411C72.15 177.471 71.915 177.193 66.662 174.623C57.195 169.992 44.993 154.858 35.099 135.48L31.025 127.5L31.013 108.917C31.006 98.696 31.292 90.041 31.649 89.685C32.322 89.011 35.598 91.738 47.541 102.912C51.413 106.536 63.113 117.357 73.541 126.959C92.758 144.657 107.087 158.636 112.53 165C119.054 172.627 126.267 185.852 128.073 193.5C129.033 197.564 130.489 199.764 135.85 205.25C139.478 208.963 143.205 212 144.133 212C145.061 212 148.724 208.738 152.273 204.75C156.972 199.469 158.921 196.428 159.444 193.555C161.547 182.022 175.752 162.577 193.914 146.369C202.113 139.052 218.871 123.605 235 108.496C239.125 104.632 245.531 98.634 249.235 95.167C252.939 91.7 256.426 89.145 256.985 89.491C257.613 89.879 258 97.216 258 108.737V127.355L253.478 136.256C243.965 154.979 231.792 169.998 222.408 174.589C219.412 176.054 216.784 177.541 216.566 177.893C216.349 178.244 216.838 180.999 217.652 184.016C219.543 191.018 218.813 200.293 215.88 206.532C213.285 212.052 205.58 220.103 201.126 221.948C199.388 222.668 198.02 223.966 198.045 224.871C198.07 225.767 200.504 229.116 203.455 232.312C208.617 237.906 208.963 238.1 212.659 237.473C245.564 231.888 267.541 212.945 272.952 185.5C273.603 182.2 277.319 171.028 281.211 160.673L288.286 141.846L287.669 133.673C286.33 115.933 283.971 86.365 282.11 64C281.035 51.075 279.848 36.338 279.471 31.25C279.019 25.13 278.384 22 277.594 22C276.452 22 272.685 24.876 256 38.489C251.875 41.855 239.95 51.529 229.5 59.987C219.05 68.445 207.125 78.122 203 81.491C192.656 89.94 174.328 104.816 163.25 113.755C158.162 117.86 153.999 121.507 153.998 121.859C153.996 122.78 145.529 128 144.039 128C143.02 128 135.951 123.087 134 121.023C133.438 120.428 119.107 108.595 111.559 102.494C106.715 98.578 88.829 84.077 66 65.557C59.675 60.426 50.225 52.751 45 48.5C19.377 27.656 12.16 22 11.184 22C10.6 22 9.885 23.913 9.594 26.25ZM50.964 117.068C49.292 120.192 50.191 130.71 52.539 135.5C55.114 140.753 62.269 145.4 86.727 157.705C104.971 166.884 110.359 168.686 104.927 163.792C103.592 162.59 98.32 157.644 93.212 152.803C85.428 145.425 83.396 144 80.658 144C76.599 144 69.125 139.388 65.944 134.921C64.645 133.097 63.338 129.837 63.041 127.677C62.603 124.499 61.513 122.904 57.322 119.307C52.199 114.912 52.131 114.888 50.964 117.068ZM230.75 119.349C227.77 122.021 226 124.441 226 125.844C226 133.182 215.284 144 208.015 144C204.893 144 203.173 145.229 193.487 154.384C187.444 160.096 182.802 165.086 183.172 165.473C184.556 166.923 215.276 151.61 227.964 143.145C230.969 141.14 234.285 138.017 235.333 136.204C238.252 131.154 238.942 114.879 236.231 115.045C235.829 115.069 233.363 117.006 230.75 119.349Z" fill="black"/>
</svg>
